<svg width="20" height="15" viewBox="0 0 20 15" fill="none" xmlns="http://www.w3.org/2000/svg">
<path d="M1.48536 10.8763L1.48536 6.16851L1.19182 6.01357C1.00099 5.91436 0.880785 5.71768 0.878451 5.50235C0.876116 5.28757 0.992543 5.08857 1.18104 4.985L9.96111 0.287126C10.1367 0.190834 10.3492 0.191399 10.526 0.288858L19.2579 4.99257C19.4438 5.09617 19.5588 5.29282 19.5576 5.50614C19.5564 5.71946 19.4391 5.91465 19.2509 6.01623L15.4141 8.05848C15.4623 8.14339 15.492 8.24027 15.492 8.34473L15.492 13.283C15.492 13.3654 15.4746 13.4468 15.4409 13.5219C15.4072 13.597 15.358 13.6642 15.2965 13.719C15.1699 13.8313 13.9572 14.815 10.2494 14.815C6.55467 14.815 5.3093 13.8853 5.17945 13.7794C5.04377 13.6688 4.96527 13.5031 4.96527 13.3274L4.96527 8.26242C4.96527 8.18043 4.98249 8.10252 5.01284 8.03191L2.65252 6.78506L2.65252 10.8795C2.99859 11.082 3.23319 11.4535 3.23319 11.883C3.23319 12.5276 2.71059 13.0502 2.06601 13.0502C1.42144 13.0502 0.898841 12.5276 0.898841 11.883C0.898841 11.4508 1.13667 11.0779 1.48536 10.8763ZM6.13248 12.993C6.59118 13.2136 7.80504 13.6478 10.2494 13.6478C12.7092 13.6478 13.8956 13.1856 14.3249 12.9632L14.3249 8.63854L10.5351 10.656C10.45 10.702 10.3548 10.7261 10.2582 10.726C10.164 10.7261 10.0712 10.7032 9.98795 10.6592L6.13248 8.62279L6.13248 12.993ZM10.2535 9.48128L17.7599 5.49536L10.2404 1.46541L2.69749 5.48369L10.2535 9.48128Z" fill="#570EFF"/>
</svg>
