<svg width="23" height="23" viewBox="0 0 23 23" fill="none" xmlns="http://www.w3.org/2000/svg">
<path d="M11.7253 12.6167C11.0571 12.6167 10.4039 12.4185 9.84826 12.0473C9.29264 11.676 8.85959 11.1484 8.60387 10.531C8.34814 9.91363 8.28123 9.23429 8.4116 8.57889C8.54197 7.9235 8.86375 7.32148 9.33627 6.84896C9.80878 6.37645 10.4108 6.05466 11.0662 5.9243C11.7216 5.79393 12.4009 5.86084 13.0183 6.11656C13.6357 6.37228 14.1633 6.80534 14.5346 7.36095C14.9058 7.91657 15.104 8.5698 15.104 9.23804C15.1029 10.1338 14.7466 10.9925 14.1132 11.6259C13.4798 12.2593 12.6211 12.6156 11.7253 12.6167ZM11.7253 7.21084C11.3244 7.21084 10.9325 7.32973 10.5991 7.55249C10.2657 7.77524 10.0059 8.09184 9.85246 8.46226C9.69902 8.83268 9.65888 9.24029 9.7371 9.63352C9.81532 10.0268 10.0084 10.388 10.2919 10.6715C10.5754 10.955 10.9366 11.1481 11.3299 11.2263C11.7231 11.3045 12.1307 11.2644 12.5011 11.1109C12.8715 10.9575 13.1881 10.6977 13.4109 10.3643C13.6336 10.0309 13.7525 9.63898 13.7525 9.23804C13.752 8.70056 13.5383 8.18524 13.1582 7.80519C12.7781 7.42513 12.2628 7.21138 11.7253 7.21084Z" fill="#570EFF"/>
<path d="M11.727 20.7252L6.02653 14.0023C5.94732 13.9014 5.86893 13.7998 5.79137 13.6976C4.81812 12.4146 4.29214 10.8481 4.29395 9.23774C4.29395 7.26637 5.07707 5.37575 6.47104 3.98178C7.86501 2.58781 9.75564 1.80469 11.727 1.80469C13.6984 1.80469 15.589 2.58781 16.983 3.98178C18.3769 5.37575 19.1601 7.26637 19.1601 9.23774C19.1616 10.8473 18.6359 12.4131 17.6633 13.6955L17.6626 13.6976C17.6626 13.6976 17.4599 13.9638 17.4295 13.9996L11.727 20.7252ZM6.87052 12.8833C6.87052 12.8833 7.02796 13.0914 7.06378 13.136L11.727 18.6358L16.3963 13.1286C16.426 13.0914 16.5842 12.882 16.5848 12.8813C17.3803 11.8333 17.8102 10.5534 17.8086 9.23774C17.8086 7.6248 17.1679 6.07793 16.0273 4.93741C14.8868 3.79689 13.3399 3.15615 11.727 3.15615C10.1141 3.15615 8.56719 3.79689 7.42667 4.93741C6.28615 6.07793 5.64541 7.6248 5.64541 9.23774C5.64375 10.5543 6.07413 11.835 6.87052 12.8833Z" fill="#570EFF"/>
</svg>
