<svg width="64" height="61" viewBox="0 0 64 61" fill="none" xmlns="http://www.w3.org/2000/svg">
<g clip-path="url(#clip0_1252_3691)">
<path d="M32.0001 60.4425C14.746 60.4425 0.759766 46.9942 0.759766 30.4037C0.759766 13.8133 14.746 0.36499 32.0001 0.36499C49.2541 0.36499 63.2404 13.8133 63.2404 30.4037C63.2404 46.9942 49.2541 60.4425 32.0001 60.4425ZM32.0001 3.6328C16.7067 3.6328 4.15829 15.6986 4.15829 30.4037C4.15829 45.1089 16.7067 57.1747 32.0001 57.1747C47.2934 57.1747 59.8419 45.1089 59.8419 30.4037C59.8419 15.6986 47.2934 3.6328 32.0001 3.6328Z" fill="#F2C94C"/>
<path d="M30.1699 44.6061C30.1699 43.6343 30.9577 42.8465 31.9295 42.8465H32.0703C33.0421 42.8465 33.8299 43.6343 33.8299 44.6061C33.8299 45.5779 33.0421 46.3657 32.0703 46.3657H31.9295C30.9577 46.3657 30.1699 45.5779 30.1699 44.6061ZM33.1033 38.2832C33.0709 38.8689 32.5865 39.3273 31.9999 39.3273C31.4133 39.3273 30.9289 38.8689 30.8965 38.2832L30.1699 25.1249V16.2716C30.1699 15.261 30.9892 14.4417 31.9999 14.4417C33.0106 14.4417 33.8299 15.261 33.8299 16.2716V25.1249L33.1033 38.2832Z" fill="#F2C94C"/>
</g>
<defs>
<clipPath id="clip0_1252_3691">
<rect width="62.4806" height="60.0775" fill="white" transform="translate(0.759766)"/>
</clipPath>
</defs>
</svg>
