<svg width="19" height="17" viewBox="0 0 19 17" fill="none" xmlns="http://www.w3.org/2000/svg">
<path d="M17.7676 8.55789V14.8483C17.7676 15.2654 17.5982 15.6654 17.2965 15.9603C16.9949 16.2553 16.5858 16.421 16.1592 16.421H3.29241C2.86585 16.421 2.45676 16.2553 2.15514 15.9603C1.85351 15.6654 1.68406 15.2654 1.68406 14.8483V8.55789C1.47078 8.55789 1.26623 8.47505 1.11542 8.32759C0.964608 8.18012 0.879883 7.98012 0.879883 7.77158V5.41266C0.879883 4.99558 1.04933 4.59558 1.35096 4.30066C1.65258 4.00574 2.06168 3.84005 2.48824 3.84005H5.03748C4.94659 3.58744 4.90036 3.32153 4.90077 3.05374C4.90077 2.42812 5.15495 1.82812 5.60738 1.38574C6.05982 0.943353 6.67346 0.694824 7.3133 0.694824C8.11748 0.694824 8.82515 1.08798 9.26745 1.66984V1.66198L9.72583 2.26744L10.1842 1.66198V1.66984C10.6265 1.08798 11.3342 0.694824 12.1384 0.694824C12.7782 0.694824 13.3918 0.943353 13.8443 1.38574C14.2967 1.82812 14.5509 2.42812 14.5509 3.05374C14.5513 3.32153 14.5051 3.58744 14.4142 3.84005H16.9634C17.39 3.84005 17.7991 4.00574 18.1007 4.30066C18.4023 4.59558 18.5718 4.99558 18.5718 5.41266V7.77158C18.5718 7.98012 18.4871 8.18012 18.3362 8.32759C18.1854 8.47505 17.9809 8.55789 17.7676 8.55789ZM3.29241 14.8483H8.92165V8.55789H3.29241V14.8483ZM16.1592 14.8483V8.55789H10.53V14.8483H16.1592ZM7.3133 2.26744C7.10002 2.26744 6.89547 2.35028 6.74466 2.49774C6.59385 2.6452 6.50912 2.8452 6.50912 3.05374C6.50912 3.26229 6.59385 3.46229 6.74466 3.60975C6.89547 3.75721 7.10002 3.84005 7.3133 3.84005C7.52658 3.84005 7.73113 3.75721 7.88194 3.60975C8.03275 3.46229 8.11748 3.26229 8.11748 3.05374C8.11748 2.8452 8.03275 2.6452 7.88194 2.49774C7.73113 2.35028 7.52658 2.26744 7.3133 2.26744ZM12.1384 2.26744C11.9251 2.26744 11.7205 2.35028 11.5697 2.49774C11.4189 2.6452 11.3342 2.8452 11.3342 3.05374C11.3342 3.26229 11.4189 3.46229 11.5697 3.60975C11.7205 3.75721 11.9251 3.84005 12.1384 3.84005C12.3516 3.84005 12.5562 3.75721 12.707 3.60975C12.8578 3.46229 12.9425 3.26229 12.9425 3.05374C12.9425 2.8452 12.8578 2.6452 12.707 2.49774C12.5562 2.35028 12.3516 2.26744 12.1384 2.26744ZM2.48824 5.41266V6.98528H8.92165V5.41266H2.48824ZM10.53 5.41266V6.98528H16.9634V5.41266H10.53Z" fill="#570EFF"/>
</svg>
