<svg width="207" height="24" viewBox="0 0 207 24" fill="none" xmlns="http://www.w3.org/2000/svg">
<path d="M1.04787 1.0403C0.840944 0.942692 0.752324 0.695816 0.849934 0.48889C0.947543 0.281961 1.19442 0.193342 1.40135 0.290951L1.04787 1.0403ZM206.702 0.665627L203.956 4.58244L201.936 0.245861L206.702 0.665627ZM1.40135 0.290951C2.12687 0.633184 2.85437 0.971899 3.58384 1.30707L3.23791 2.05994C2.50592 1.72361 1.7759 1.38372 1.04787 1.0403L1.40135 0.290951ZM7.97947 3.27347C9.44998 3.91364 10.9281 4.53954 12.4137 5.151L12.0984 5.91718C10.6076 5.30359 9.12436 4.67553 7.64876 4.03315L7.97947 3.27347ZM16.885 6.93889C18.3799 7.51925 19.882 8.08511 21.3912 8.63628L21.107 9.41454C19.5926 8.86145 18.0852 8.29364 16.5851 7.71127L16.885 6.93889ZM25.931 10.2426C27.4478 10.7621 28.9715 11.267 30.5018 11.7569L30.2492 12.546C28.7136 12.0544 27.1846 11.5478 25.6625 11.0264L25.931 10.2426ZM35.1028 13.1789C36.6391 13.6368 38.1819 14.0798 39.7309 14.5076L39.5103 15.3063C37.9559 14.8769 36.4078 14.4324 34.8661 13.9729L35.1028 13.1789ZM44.3857 15.743C45.9389 16.1385 47.4982 16.519 49.0633 16.8841L48.8751 17.691C47.3045 17.3246 45.7398 16.9428 44.1812 16.5459L44.3857 15.743ZM53.7643 17.931C55.3319 18.2636 56.9052 18.5809 58.4839 18.8828L58.3283 19.6966C56.7441 19.3937 55.1654 19.0753 53.5923 18.7415L53.7643 17.931ZM63.223 19.7398C64.8026 20.0091 66.3874 20.263 67.9774 20.5014L67.8545 21.3208C66.2591 21.0816 64.6688 20.8268 63.0838 20.5566L63.223 19.7398ZM72.7467 21.1676C74.3357 21.3734 75.9296 21.5637 77.5282 21.7383L77.4383 22.562C75.8342 22.3867 74.2348 22.1958 72.6403 21.9893L72.7467 21.1676ZM82.3199 22.2135C83.9159 22.3557 85.5164 22.4824 87.1212 22.5933L87.0641 23.4199C85.4538 23.3086 83.8478 23.1815 82.2464 23.0388L82.3199 22.2135ZM91.9274 22.8777C93.5276 22.9565 95.1318 23.0197 96.7401 23.0671L96.7156 23.8952C95.102 23.8477 93.4923 23.7843 91.8867 23.7052L91.9274 22.8777ZM101.554 23.1616C102.356 23.1694 103.159 23.1734 103.963 23.1734V24.0019C103.156 24.0019 102.351 23.998 101.546 23.9901L101.554 23.1616ZM103.963 23.1734C104.767 23.1734 105.57 23.1694 106.372 23.1616L106.38 23.9901C105.575 23.998 104.77 24.0019 103.963 24.0019V23.1734ZM111.186 23.0671C112.794 23.0197 114.399 22.9565 115.999 22.8777L116.04 23.7052C114.434 23.7843 112.824 23.8477 111.211 23.8952L111.186 23.0671ZM120.805 22.5933C122.41 22.4824 124.01 22.3557 125.606 22.2135L125.68 23.0388C124.078 23.1815 122.472 23.3086 120.862 23.4199L120.805 22.5933ZM130.398 21.7383C131.997 21.5637 133.59 21.3734 135.18 21.1676L135.286 21.9893C133.691 22.1958 132.092 22.3867 130.488 22.562L130.398 21.7383ZM139.949 20.5014C141.539 20.263 143.124 20.0091 144.703 19.7398L144.842 20.5566C143.257 20.8268 141.667 21.0816 140.072 21.3208L139.949 20.5014ZM149.442 18.8828C151.021 18.5809 152.594 18.2636 154.162 17.931L154.334 18.7415C152.761 19.0753 151.182 19.3937 149.598 19.6966L149.442 18.8828ZM158.863 16.8841C160.428 16.519 161.987 16.1385 163.541 15.743L163.745 16.5459C162.186 16.9428 160.622 17.3246 159.051 17.691L158.863 16.8841ZM168.195 14.5076C169.744 14.0798 171.287 13.6368 172.823 13.1789L173.06 13.9729C171.518 14.4324 169.97 14.8769 168.416 15.3063L168.195 14.5076ZM177.424 11.7569C178.955 11.267 180.478 10.7621 181.995 10.2426L182.264 11.0264C180.742 11.5478 179.213 12.0543 177.677 12.546L177.424 11.7569ZM186.535 8.63628C188.044 8.0851 189.546 7.51925 191.041 6.93889L191.341 7.71126C189.841 8.29363 188.334 8.86145 186.819 9.41454L186.535 8.63628ZM195.512 5.151C196.998 4.53954 198.476 3.91364 199.947 3.27348L200.277 4.03315C198.802 4.67553 197.319 5.30359 195.828 5.91718L195.512 5.151ZM1.04787 1.0403C0.840944 0.942692 0.752324 0.695816 0.849934 0.48889C0.947543 0.281961 1.19442 0.193342 1.40135 0.290951L1.04787 1.0403ZM206.702 0.665627L203.956 4.58244L201.936 0.245861L206.702 0.665627ZM1.40135 0.290951C2.12687 0.633184 2.85437 0.971899 3.58384 1.30707L3.23791 2.05994C2.50592 1.72361 1.7759 1.38372 1.04787 1.0403L1.40135 0.290951ZM7.97947 3.27347C9.44998 3.91364 10.9281 4.53954 12.4137 5.151L12.0984 5.91718C10.6076 5.30359 9.12436 4.67553 7.64876 4.03315L7.97947 3.27347ZM16.885 6.93889C18.3799 7.51925 19.882 8.08511 21.3912 8.63628L21.107 9.41454C19.5926 8.86145 18.0852 8.29364 16.5851 7.71127L16.885 6.93889ZM25.931 10.2426C27.4478 10.7621 28.9715 11.267 30.5018 11.7569L30.2492 12.546C28.7136 12.0544 27.1846 11.5478 25.6625 11.0264L25.931 10.2426ZM35.1028 13.1789C36.6391 13.6368 38.1819 14.0798 39.7309 14.5076L39.5103 15.3063C37.9559 14.8769 36.4078 14.4324 34.8661 13.9729L35.1028 13.1789ZM44.3857 15.743C45.9389 16.1385 47.4982 16.519 49.0633 16.8841L48.8751 17.691C47.3045 17.3246 45.7398 16.9428 44.1812 16.5459L44.3857 15.743ZM53.7643 17.931C55.3319 18.2636 56.9052 18.5809 58.4839 18.8828L58.3283 19.6966C56.7441 19.3937 55.1654 19.0753 53.5923 18.7415L53.7643 17.931ZM63.223 19.7398C64.8026 20.0091 66.3874 20.263 67.9774 20.5014L67.8545 21.3208C66.2591 21.0816 64.6688 20.8268 63.0838 20.5566L63.223 19.7398ZM72.7467 21.1676C74.3357 21.3734 75.9296 21.5637 77.5282 21.7383L77.4383 22.562C75.8342 22.3867 74.2348 22.1958 72.6403 21.9893L72.7467 21.1676ZM82.3199 22.2135C83.9159 22.3557 85.5164 22.4824 87.1212 22.5933L87.0641 23.4199C85.4538 23.3086 83.8478 23.1815 82.2464 23.0388L82.3199 22.2135ZM91.9274 22.8777C93.5276 22.9565 95.1318 23.0197 96.7401 23.0671L96.7156 23.8952C95.102 23.8477 93.4923 23.7843 91.8867 23.7052L91.9274 22.8777ZM101.554 23.1616C102.356 23.1694 103.159 23.1734 103.963 23.1734V24.0019C103.156 24.0019 102.351 23.998 101.546 23.9901L101.554 23.1616ZM103.963 23.1734C104.767 23.1734 105.57 23.1694 106.372 23.1616L106.38 23.9901C105.575 23.998 104.77 24.0019 103.963 24.0019V23.1734ZM111.186 23.0671C112.794 23.0197 114.399 22.9565 115.999 22.8777L116.04 23.7052C114.434 23.7843 112.824 23.8477 111.211 23.8952L111.186 23.0671ZM120.805 22.5933C122.41 22.4824 124.01 22.3557 125.606 22.2135L125.68 23.0388C124.078 23.1815 122.472 23.3086 120.862 23.4199L120.805 22.5933ZM130.398 21.7383C131.997 21.5637 133.59 21.3734 135.18 21.1676L135.286 21.9893C133.691 22.1958 132.092 22.3867 130.488 22.562L130.398 21.7383ZM139.949 20.5014C141.539 20.263 143.124 20.0091 144.703 19.7398L144.842 20.5566C143.257 20.8268 141.667 21.0816 140.072 21.3208L139.949 20.5014ZM149.442 18.8828C151.021 18.5809 152.594 18.2636 154.162 17.931L154.334 18.7415C152.761 19.0753 151.182 19.3937 149.598 19.6966L149.442 18.8828ZM158.863 16.8841C160.428 16.519 161.987 16.1385 163.541 15.743L163.745 16.5459C162.186 16.9428 160.622 17.3246 159.051 17.691L158.863 16.8841ZM168.195 14.5076C169.744 14.0798 171.287 13.6368 172.823 13.1789L173.06 13.9729C171.518 14.4324 169.97 14.8769 168.416 15.3063L168.195 14.5076ZM177.424 11.7569C178.955 11.267 180.478 10.7621 181.995 10.2426L182.264 11.0264C180.742 11.5478 179.213 12.0543 177.677 12.546L177.424 11.7569ZM186.535 8.63628C188.044 8.0851 189.546 7.51925 191.041 6.93889L191.341 7.71126C189.841 8.29363 188.334 8.86145 186.819 9.41454L186.535 8.63628ZM195.512 5.151C196.998 4.53954 198.476 3.91364 199.947 3.27348L200.277 4.03315C198.802 4.67553 197.319 5.30359 195.828 5.91718L195.512 5.151Z" fill="#AFAFAF"/>
</svg>
