<svg width="214" height="27" viewBox="0 0 214 27" fill="none" xmlns="http://www.w3.org/2000/svg">
<path d="M0.677007 25.8681C0.473193 25.972 0.392242 26.2215 0.496197 26.4253C0.600152 26.6292 0.849648 26.7101 1.05346 26.6061L0.677007 25.8681ZM213.799 26.2371L211.174 22.2379L209.023 26.5104L213.799 26.2371ZM1.05346 26.6061C1.79818 26.2263 2.54491 25.8503 3.29365 25.4783L2.92492 24.7363C2.17361 25.1096 1.42429 25.4869 0.677007 25.8681L1.05346 26.6061ZM7.80887 23.2931C9.32117 22.5807 10.8413 21.8841 12.369 21.2033L12.0318 20.4465C10.4987 21.1296 8.97334 21.8287 7.45579 22.5436L7.80887 23.2931ZM16.9722 19.2103C18.5129 18.5625 20.061 17.9307 21.6164 17.3152L21.3116 16.5448C19.7507 17.1625 18.1972 17.7964 16.651 18.4465L16.9722 19.2103ZM26.3001 15.5194C27.8667 14.9378 29.4403 14.3726 31.0207 13.8239L30.749 13.0412C29.163 13.5918 27.5838 14.159 26.0117 14.7426L26.3001 15.5194ZM35.777 12.2298C37.3666 11.7159 38.9629 11.2187 40.5657 10.7384L40.3279 9.94474C38.7194 10.4268 37.1174 10.9258 35.5221 11.4415L35.777 12.2298ZM45.3862 9.35015C46.9961 8.90526 48.6123 8.4773 50.2346 8.06647L50.0312 7.26329C48.4031 7.67559 46.7812 8.10507 45.1656 8.55155L45.3862 9.35015ZM55.1104 6.8876C56.7377 6.51274 58.3709 6.15504 60.0098 5.81469L59.8413 5.00346C58.1966 5.34503 56.5576 5.70401 54.9244 6.08021L55.1104 6.8876ZM64.9319 4.84795C66.5736 4.54394 68.2208 4.25728 69.8733 3.98815L69.7401 3.17039C68.0817 3.44048 66.4286 3.72817 64.781 4.03327L64.9319 4.84795ZM74.8324 3.23553C76.4856 3.00292 78.1438 2.78782 79.8069 2.59039L79.7092 1.76763C78.0402 1.96576 76.376 2.18163 74.717 2.41507L74.8324 3.23553ZM84.7935 2.05303C86.455 1.89211 88.1212 1.74882 89.7919 1.62331L89.7299 0.797102C88.0532 0.923054 86.3811 1.06686 84.7136 1.22835L84.7935 2.05303ZM94.7965 1.30147C96.463 1.21227 98.1337 1.14076 99.8086 1.08711L99.7821 0.258998C98.1013 0.312842 96.4246 0.384605 94.7522 0.474116L94.7965 1.30147ZM104.823 0.980124C105.658 0.97122 106.495 0.966758 107.332 0.966758V0.138222C106.492 0.138222 105.652 0.1427 104.814 0.151635L104.823 0.980124ZM107.332 0.966758C108.17 0.966758 109.006 0.97122 109.841 0.980124L109.85 0.151635C109.012 0.1427 108.172 0.138222 107.332 0.138222V0.966758ZM114.856 1.08711C116.531 1.14076 118.201 1.21227 119.868 1.30147L119.912 0.474116C118.24 0.384605 116.563 0.312842 114.882 0.258998L114.856 1.08711ZM124.872 1.62331C126.543 1.74882 128.209 1.89211 129.871 2.05303L129.951 1.22835C128.283 1.06686 126.611 0.923054 124.934 0.797102L124.872 1.62331ZM134.857 2.5904C136.521 2.78782 138.179 3.00292 139.832 3.23553L139.947 2.41507C138.288 2.18164 136.624 1.96576 134.955 1.76764L134.857 2.5904ZM144.791 3.98815C146.443 4.25728 148.091 4.54394 149.732 4.84796L149.883 4.03327C148.236 3.72817 146.583 3.44048 144.924 3.17039L144.791 3.98815ZM154.655 5.81469C156.293 6.15504 157.927 6.51274 159.554 6.8876L159.74 6.08021C158.107 5.70401 156.468 5.34503 154.823 5.00346L154.655 5.81469ZM164.43 8.06647C166.052 8.4773 167.668 8.90526 169.278 9.35015L169.499 8.55155C167.883 8.10507 166.261 7.67559 164.633 7.26329L164.43 8.06647ZM174.099 10.7384C175.701 11.2187 177.298 11.7159 178.887 12.2298L179.142 11.4415C177.547 10.9258 175.945 10.4268 174.336 9.94474L174.099 10.7384ZM183.644 13.8239C185.224 14.3726 186.798 14.9378 188.364 15.5194L188.653 14.7426C187.08 14.159 185.501 13.5918 183.915 13.0412L183.644 13.8239ZM193.048 17.3152C194.603 17.9307 196.151 18.5625 197.692 19.2103L198.013 18.4465C196.467 17.7964 194.914 17.1625 193.353 16.5448L193.048 17.3152ZM202.295 21.2033C203.823 21.8841 205.343 22.5807 206.855 23.2931L207.208 22.5436C205.691 21.8287 204.166 21.1296 202.633 20.4465L202.295 21.2033ZM0.677007 25.8681C0.473193 25.972 0.392242 26.2215 0.496197 26.4253C0.600152 26.6292 0.849648 26.7101 1.05346 26.6061L0.677007 25.8681ZM213.799 26.2371L211.174 22.2379L209.023 26.5104L213.799 26.2371ZM1.05346 26.6061C1.79818 26.2263 2.54491 25.8503 3.29365 25.4783L2.92492 24.7363C2.17361 25.1096 1.42429 25.4869 0.677007 25.8681L1.05346 26.6061ZM7.80887 23.2931C9.32117 22.5807 10.8413 21.8841 12.369 21.2033L12.0318 20.4465C10.4987 21.1296 8.97334 21.8287 7.45579 22.5436L7.80887 23.2931ZM16.9722 19.2103C18.5129 18.5625 20.061 17.9307 21.6164 17.3152L21.3116 16.5448C19.7507 17.1625 18.1972 17.7964 16.651 18.4465L16.9722 19.2103ZM26.3001 15.5194C27.8667 14.9378 29.4403 14.3726 31.0207 13.8239L30.749 13.0412C29.163 13.5918 27.5838 14.159 26.0117 14.7426L26.3001 15.5194ZM35.777 12.2298C37.3666 11.7159 38.9629 11.2187 40.5657 10.7384L40.3279 9.94474C38.7194 10.4268 37.1174 10.9258 35.5221 11.4415L35.777 12.2298ZM45.3862 9.35015C46.9961 8.90526 48.6123 8.4773 50.2346 8.06647L50.0312 7.26329C48.4031 7.67559 46.7812 8.10507 45.1656 8.55155L45.3862 9.35015ZM55.1104 6.8876C56.7377 6.51274 58.3709 6.15504 60.0098 5.81469L59.8413 5.00346C58.1966 5.34503 56.5576 5.70401 54.9244 6.08021L55.1104 6.8876ZM64.9319 4.84795C66.5736 4.54394 68.2208 4.25728 69.8733 3.98815L69.7401 3.17039C68.0817 3.44048 66.4286 3.72817 64.781 4.03327L64.9319 4.84795ZM74.8324 3.23553C76.4856 3.00292 78.1438 2.78782 79.8069 2.59039L79.7092 1.76763C78.0402 1.96576 76.376 2.18163 74.717 2.41507L74.8324 3.23553ZM84.7935 2.05303C86.455 1.89211 88.1212 1.74882 89.7919 1.62331L89.7299 0.797102C88.0532 0.923054 86.3811 1.06686 84.7136 1.22835L84.7935 2.05303ZM94.7965 1.30147C96.463 1.21227 98.1337 1.14076 99.8086 1.08711L99.7821 0.258998C98.1013 0.312842 96.4246 0.384605 94.7522 0.474116L94.7965 1.30147ZM104.823 0.980124C105.658 0.97122 106.495 0.966758 107.332 0.966758V0.138222C106.492 0.138222 105.652 0.1427 104.814 0.151635L104.823 0.980124ZM107.332 0.966758C108.17 0.966758 109.006 0.97122 109.841 0.980124L109.85 0.151635C109.012 0.1427 108.172 0.138222 107.332 0.138222V0.966758ZM114.856 1.08711C116.531 1.14076 118.201 1.21227 119.868 1.30147L119.912 0.474116C118.24 0.384605 116.563 0.312842 114.882 0.258998L114.856 1.08711ZM124.872 1.62331C126.543 1.74882 128.209 1.89211 129.871 2.05303L129.951 1.22835C128.283 1.06686 126.611 0.923054 124.934 0.797102L124.872 1.62331ZM134.857 2.5904C136.521 2.78782 138.179 3.00292 139.832 3.23553L139.947 2.41507C138.288 2.18164 136.624 1.96576 134.955 1.76764L134.857 2.5904ZM144.791 3.98815C146.443 4.25728 148.091 4.54394 149.732 4.84796L149.883 4.03327C148.236 3.72817 146.583 3.44048 144.924 3.17039L144.791 3.98815ZM154.655 5.81469C156.293 6.15504 157.927 6.51274 159.554 6.8876L159.74 6.08021C158.107 5.70401 156.468 5.34503 154.823 5.00346L154.655 5.81469ZM164.43 8.06647C166.052 8.4773 167.668 8.90526 169.278 9.35015L169.499 8.55155C167.883 8.10507 166.261 7.67559 164.633 7.26329L164.43 8.06647ZM174.099 10.7384C175.701 11.2187 177.298 11.7159 178.887 12.2298L179.142 11.4415C177.547 10.9258 175.945 10.4268 174.336 9.94474L174.099 10.7384ZM183.644 13.8239C185.224 14.3726 186.798 14.9378 188.364 15.5194L188.653 14.7426C187.08 14.159 185.501 13.5918 183.915 13.0412L183.644 13.8239ZM193.048 17.3152C194.603 17.9307 196.151 18.5625 197.692 19.2103L198.013 18.4465C196.467 17.7964 194.914 17.1625 193.353 16.5448L193.048 17.3152ZM202.295 21.2033C203.823 21.8841 205.343 22.5807 206.855 23.2931L207.208 22.5436C205.691 21.8287 204.166 21.1296 202.633 20.4465L202.295 21.2033Z" fill="#AFAFAF"/>
</svg>
