<svg width="35" height="35" viewBox="0 0 35 35" fill="none" xmlns="http://www.w3.org/2000/svg">
<rect width="35" height="35" rx="17.5" fill="#F1F7FF"/>
<path d="M25.34 10.5H9.66C9.572 10.5 9.5 10.5716 9.5 10.6591V11.9318C9.5 12.0193 9.572 12.0909 9.66 12.0909H25.34C25.428 12.0909 25.5 12.0193 25.5 11.9318V10.6591C25.5 10.5716 25.428 10.5 25.34 10.5ZM25.34 22.9091H9.66C9.572 22.9091 9.5 22.9807 9.5 23.0682V24.3409C9.5 24.4284 9.572 24.5 9.66 24.5H25.34C25.428 24.5 25.5 24.4284 25.5 24.3409V23.0682C25.5 22.9807 25.428 22.9091 25.34 22.9091ZM25.34 16.7045H9.66C9.572 16.7045 9.5 16.7761 9.5 16.8636V18.1364C9.5 18.2239 9.572 18.2955 9.66 18.2955H25.34C25.428 18.2955 25.5 18.2239 25.5 18.1364V16.8636C25.5 16.7761 25.428 16.7045 25.34 16.7045Z" fill="#570EFF"/>
</svg>