<svg width="18" height="17" viewBox="0 0 18 17" fill="none" xmlns="http://www.w3.org/2000/svg">
<path d="M16.7679 11.3429L12.832 9.68298L12.8212 9.67826C12.6169 9.59601 12.394 9.563 12.1727 9.58222C11.9514 9.60144 11.7387 9.67228 11.5538 9.78834C11.532 9.80186 11.5111 9.81656 11.4911 9.83238L9.45763 11.464C8.16936 10.875 6.83931 9.63265 6.21355 8.43588L7.94963 6.4929C7.96634 6.47324 7.98221 6.45358 7.99725 6.43235C8.11792 6.25881 8.19112 6.05989 8.21037 5.85329C8.22961 5.64669 8.19428 5.43881 8.10753 5.24816V5.23873L6.33887 1.52811C6.2242 1.27906 6.02702 1.07159 5.77676 0.936676C5.52651 0.801763 5.23661 0.746642 4.95034 0.77954C3.81827 0.919745 2.77914 1.44301 2.02702 2.2516C1.27491 3.06018 0.861242 4.0988 0.863289 5.17346C0.863289 11.4168 6.26034 16.4964 12.8939 16.4964C14.0357 16.4983 15.1392 16.109 15.9983 15.4011C16.8575 14.6932 17.4134 13.7152 17.5624 12.6497C17.5974 12.3804 17.539 12.1076 17.3958 11.8721C17.2526 11.6366 17.0323 11.4509 16.7679 11.3429ZM12.8939 15.2383C10.0586 15.2354 7.34041 14.174 5.33559 12.2871C3.33078 10.4003 2.20312 7.84193 2.20002 5.17346C2.19688 4.40562 2.4908 3.66295 3.0269 3.08415C3.563 2.50536 4.30462 2.13001 5.11326 2.02821C5.11292 2.03134 5.11292 2.03451 5.11326 2.03764L6.86772 5.73332L5.14083 7.67866C5.12326 7.69762 5.10734 7.71786 5.0932 7.73921C4.96748 7.92078 4.89373 8.12984 4.87909 8.34613C4.86445 8.56242 4.90943 8.7786 5.00966 8.97372C5.76658 10.4308 7.32638 11.8878 8.89119 12.5994C9.10003 12.6929 9.33105 12.7337 9.56168 12.718C9.79232 12.7023 10.0147 12.6306 10.207 12.5098C10.2285 12.4962 10.2492 12.4815 10.2689 12.4657L12.2999 10.8349L16.2265 12.4901H16.2357C16.1288 13.2523 15.7306 13.9517 15.1156 14.4575C14.5005 14.9633 13.7107 15.2409 12.8939 15.2383Z" fill="#570EFF"/>
</svg>
