<svg width="182" height="46" viewBox="0 0 182 46" fill="none" xmlns="http://www.w3.org/2000/svg">
<rect width="182" height="46" rx="10" fill="#E7F1FF"/>
<path d="M29.8615 29.112C29.0828 29.112 28.3788 28.9787 27.7495 28.712C27.1308 28.4453 26.6402 28.0613 26.2775 27.56C25.9148 27.0587 25.7282 26.4667 25.7175 25.784H28.1175C28.1495 26.2427 28.3095 26.6053 28.5975 26.872C28.8962 27.1387 29.3015 27.272 29.8135 27.272C30.3362 27.272 30.7468 27.1493 31.0455 26.904C31.3442 26.648 31.4935 26.3173 31.4935 25.912C31.4935 25.5813 31.3922 25.3093 31.1895 25.096C30.9868 24.8827 30.7308 24.7173 30.4215 24.6C30.1228 24.472 29.7068 24.3333 29.1735 24.184C28.4482 23.9707 27.8562 23.7627 27.3975 23.56C26.9495 23.3467 26.5602 23.032 26.2295 22.616C25.9095 22.1893 25.7495 21.624 25.7495 20.92C25.7495 20.2587 25.9148 19.6827 26.2455 19.192C26.5762 18.7013 27.0402 18.328 27.6375 18.072C28.2348 17.8053 28.9175 17.672 29.6855 17.672C30.8375 17.672 31.7708 17.9547 32.4855 18.52C33.2108 19.0747 33.6108 19.8533 33.6855 20.856H31.2215C31.2002 20.472 31.0348 20.1573 30.7255 19.912C30.4268 19.656 30.0268 19.528 29.5255 19.528C29.0882 19.528 28.7362 19.64 28.4695 19.864C28.2135 20.088 28.0855 20.4133 28.0855 20.84C28.0855 21.1387 28.1815 21.3893 28.3735 21.592C28.5762 21.784 28.8215 21.944 29.1095 22.072C29.4082 22.1893 29.8242 22.328 30.3575 22.488C31.0828 22.7013 31.6748 22.9147 32.1335 23.128C32.5922 23.3413 32.9868 23.6613 33.3175 24.088C33.6482 24.5147 33.8135 25.0747 33.8135 25.768C33.8135 26.3653 33.6588 26.92 33.3495 27.432C33.0402 27.944 32.5868 28.3547 31.9895 28.664C31.3922 28.9627 30.6828 29.112 29.8615 29.112ZM34.8275 24.536C34.8275 23.64 35.0035 22.8453 35.3555 22.152C35.7182 21.4587 36.2035 20.9253 36.8115 20.552C37.4302 20.1787 38.1182 19.992 38.8755 19.992C39.5368 19.992 40.1128 20.1253 40.6035 20.392C41.1048 20.6587 41.5048 20.9947 41.8035 21.4V20.136H44.0595V29H41.8035V27.704C41.5155 28.12 41.1155 28.4667 40.6035 28.744C40.1022 29.0107 39.5208 29.144 38.8595 29.144C38.1128 29.144 37.4302 28.952 36.8115 28.568C36.2035 28.184 35.7182 27.6453 35.3555 26.952C35.0035 26.248 34.8275 25.4427 34.8275 24.536ZM41.8035 24.568C41.8035 24.024 41.6968 23.56 41.4835 23.176C41.2702 22.7813 40.9822 22.4827 40.6195 22.28C40.2568 22.0667 39.8675 21.96 39.4515 21.96C39.0355 21.96 38.6515 22.0613 38.2995 22.264C37.9475 22.4667 37.6595 22.7653 37.4355 23.16C37.2222 23.544 37.1155 24.0027 37.1155 24.536C37.1155 25.0693 37.2222 25.5387 37.4355 25.944C37.6595 26.3387 37.9475 26.6427 38.2995 26.856C38.6622 27.0693 39.0462 27.176 39.4515 27.176C39.8675 27.176 40.2568 27.0747 40.6195 26.872C40.9822 26.6587 41.2702 26.36 41.4835 25.976C41.6968 25.5813 41.8035 25.112 41.8035 24.568ZM48.1352 17.16V29H45.8952V17.16H48.1352ZM53.6924 26.936L55.9324 20.136H58.3164L55.0364 29H52.3164L49.0524 20.136H51.4524L53.6924 26.936ZM58.6465 24.536C58.6465 23.64 58.8225 22.8453 59.1745 22.152C59.5372 21.4587 60.0225 20.9253 60.6305 20.552C61.2492 20.1787 61.9372 19.992 62.6945 19.992C63.3558 19.992 63.9318 20.1253 64.4225 20.392C64.9238 20.6587 65.3238 20.9947 65.6225 21.4V20.136H67.8785V29H65.6225V27.704C65.3345 28.12 64.9345 28.4667 64.4225 28.744C63.9212 29.0107 63.3398 29.144 62.6785 29.144C61.9318 29.144 61.2492 28.952 60.6305 28.568C60.0225 28.184 59.5372 27.6453 59.1745 26.952C58.8225 26.248 58.6465 25.4427 58.6465 24.536ZM65.6225 24.568C65.6225 24.024 65.5158 23.56 65.3025 23.176C65.0892 22.7813 64.8012 22.4827 64.4385 22.28C64.0758 22.0667 63.6865 21.96 63.2705 21.96C62.8545 21.96 62.4705 22.0613 62.1185 22.264C61.7665 22.4667 61.4785 22.7653 61.2545 23.16C61.0412 23.544 60.9345 24.0027 60.9345 24.536C60.9345 25.0693 61.0412 25.5387 61.2545 25.944C61.4785 26.3387 61.7665 26.6427 62.1185 26.856C62.4812 27.0693 62.8652 27.176 63.2705 27.176C63.6865 27.176 64.0758 27.0747 64.4385 26.872C64.8012 26.6587 65.0892 26.36 65.3025 25.976C65.5158 25.5813 65.6225 25.112 65.6225 24.568ZM71.9542 21.512C72.2422 21.0427 72.6156 20.6747 73.0742 20.408C73.5436 20.1413 74.0769 20.008 74.6742 20.008V22.36H74.0822C73.3782 22.36 72.8449 22.5253 72.4822 22.856C72.1302 23.1867 71.9542 23.7627 71.9542 24.584V29H69.7142V20.136H71.9542V21.512ZM85.0515 29L82.5875 24.648H81.5315V29H79.2915V17.832H83.4835C84.3475 17.832 85.0835 17.9867 85.6915 18.296C86.2995 18.5947 86.7528 19.0053 87.0515 19.528C87.3608 20.04 87.5155 20.616 87.5155 21.256C87.5155 21.992 87.3022 22.6587 86.8755 23.256C86.4488 23.8427 85.8142 24.248 84.9715 24.472L87.6435 29H85.0515ZM81.5315 22.968H83.4035C84.0115 22.968 84.4648 22.824 84.7635 22.536C85.0622 22.2373 85.2115 21.8267 85.2115 21.304C85.2115 20.792 85.0622 20.3973 84.7635 20.12C84.4648 19.832 84.0115 19.688 83.4035 19.688H81.5315V22.968ZM88.6135 24.536C88.6135 23.64 88.7895 22.8453 89.1415 22.152C89.5042 21.4587 89.9895 20.9253 90.5975 20.552C91.2162 20.1787 91.9042 19.992 92.6615 19.992C93.3228 19.992 93.8988 20.1253 94.3895 20.392C94.8908 20.6587 95.2908 20.9947 95.5895 21.4V20.136H97.8455V29H95.5895V27.704C95.3015 28.12 94.9015 28.4667 94.3895 28.744C93.8882 29.0107 93.3068 29.144 92.6455 29.144C91.8988 29.144 91.2162 28.952 90.5975 28.568C89.9895 28.184 89.5042 27.6453 89.1415 26.952C88.7895 26.248 88.6135 25.4427 88.6135 24.536ZM95.5895 24.568C95.5895 24.024 95.4828 23.56 95.2695 23.176C95.0562 22.7813 94.7682 22.4827 94.4055 22.28C94.0428 22.0667 93.6535 21.96 93.2375 21.96C92.8215 21.96 92.4375 22.0613 92.0855 22.264C91.7335 22.4667 91.4455 22.7653 91.2215 23.16C91.0082 23.544 90.9015 24.0027 90.9015 24.536C90.9015 25.0693 91.0082 25.5387 91.2215 25.944C91.4455 26.3387 91.7335 26.6427 92.0855 26.856C92.4482 27.0693 92.8322 27.176 93.2375 27.176C93.6535 27.176 94.0428 27.0747 94.4055 26.872C94.7682 26.6587 95.0562 26.36 95.2695 25.976C95.4828 25.5813 95.5895 25.112 95.5895 24.568ZM103.073 29.144C102.348 29.144 101.697 29.016 101.121 28.76C100.545 28.4933 100.087 28.136 99.7452 27.688C99.4146 27.24 99.2332 26.744 99.2012 26.2H101.457C101.5 26.5413 101.665 26.824 101.953 27.048C102.252 27.272 102.62 27.384 103.057 27.384C103.484 27.384 103.815 27.2987 104.049 27.128C104.295 26.9573 104.417 26.7387 104.417 26.472C104.417 26.184 104.268 25.9707 103.969 25.832C103.681 25.6827 103.217 25.5227 102.577 25.352C101.916 25.192 101.372 25.0267 100.945 24.856C100.529 24.6853 100.167 24.424 99.8572 24.072C99.5586 23.72 99.4092 23.2453 99.4092 22.648C99.4092 22.1573 99.5479 21.7093 99.8252 21.304C100.113 20.8987 100.519 20.5787 101.041 20.344C101.575 20.1093 102.199 19.992 102.913 19.992C103.969 19.992 104.812 20.2587 105.441 20.792C106.071 21.3147 106.417 22.024 106.481 22.92H104.337C104.305 22.568 104.156 22.2907 103.889 22.088C103.633 21.8747 103.287 21.768 102.849 21.768C102.444 21.768 102.129 21.8427 101.905 21.992C101.692 22.1413 101.585 22.3493 101.585 22.616C101.585 22.9147 101.735 23.144 102.033 23.304C102.332 23.4533 102.796 23.608 103.425 23.768C104.065 23.928 104.593 24.0933 105.009 24.264C105.425 24.4347 105.783 24.7013 106.081 25.064C106.391 25.416 106.551 25.8853 106.561 26.472C106.561 26.984 106.417 27.4427 106.129 27.848C105.852 28.2533 105.447 28.5733 104.913 28.808C104.391 29.032 103.777 29.144 103.073 29.144ZM107.472 24.568C107.472 23.6507 107.659 22.8507 108.032 22.168C108.405 21.4747 108.923 20.9413 109.584 20.568C110.245 20.184 111.003 19.992 111.856 19.992C112.955 19.992 113.861 20.2693 114.576 20.824C115.301 21.368 115.787 22.136 116.032 23.128H113.616C113.488 22.744 113.269 22.4453 112.96 22.232C112.661 22.008 112.288 21.896 111.84 21.896C111.2 21.896 110.693 22.1307 110.32 22.6C109.947 23.0587 109.76 23.7147 109.76 24.568C109.76 25.4107 109.947 26.0667 110.32 26.536C110.693 26.9947 111.2 27.224 111.84 27.224C112.747 27.224 113.339 26.8187 113.616 26.008H116.032C115.787 26.968 115.301 27.7307 114.576 28.296C113.851 28.8613 112.944 29.144 111.856 29.144C111.003 29.144 110.245 28.9573 109.584 28.584C108.923 28.2 108.405 27.6667 108.032 26.984C107.659 26.2907 107.472 25.4853 107.472 24.568ZM125.689 20.136V29H123.433V27.88C123.145 28.264 122.766 28.568 122.297 28.792C121.838 29.0053 121.337 29.112 120.793 29.112C120.1 29.112 119.486 28.968 118.953 28.68C118.42 28.3813 117.998 27.9493 117.689 27.384C117.39 26.808 117.241 26.1253 117.241 25.336V20.136H119.481V25.016C119.481 25.72 119.657 26.264 120.009 26.648C120.361 27.0213 120.841 27.208 121.449 27.208C122.068 27.208 122.553 27.0213 122.905 26.648C123.257 26.264 123.433 25.72 123.433 25.016V20.136H125.689ZM132.459 20.008C133.515 20.008 134.368 20.344 135.019 21.016C135.67 21.6773 135.995 22.6053 135.995 23.8V29H133.755V24.104C133.755 23.4 133.579 22.8613 133.227 22.488C132.875 22.104 132.395 21.912 131.787 21.912C131.168 21.912 130.678 22.104 130.315 22.488C129.963 22.8613 129.787 23.4 129.787 24.104V29H127.547V20.136H129.787V21.24C130.086 20.856 130.464 20.5573 130.923 20.344C131.392 20.12 131.904 20.008 132.459 20.008ZM142.765 20.008C143.437 20.008 144.035 20.1573 144.557 20.456C145.08 20.744 145.485 21.176 145.773 21.752C146.072 22.3173 146.221 23 146.221 23.8V29H143.981V24.104C143.981 23.4 143.805 22.8613 143.453 22.488C143.101 22.104 142.621 21.912 142.013 21.912C141.395 21.912 140.904 22.104 140.541 22.488C140.189 22.8613 140.013 23.4 140.013 24.104V29H137.773V17.16H140.013V21.24C140.301 20.856 140.685 20.5573 141.165 20.344C141.645 20.12 142.179 20.008 142.765 20.008ZM151.935 29.144C151.082 29.144 150.314 28.9573 149.631 28.584C148.949 28.2 148.41 27.6613 148.015 26.968C147.631 26.2747 147.439 25.4747 147.439 24.568C147.439 23.6613 147.637 22.8613 148.031 22.168C148.437 21.4747 148.986 20.9413 149.679 20.568C150.373 20.184 151.146 19.992 151.999 19.992C152.853 19.992 153.626 20.184 154.319 20.568C155.013 20.9413 155.557 21.4747 155.951 22.168C156.357 22.8613 156.559 23.6613 156.559 24.568C156.559 25.4747 156.351 26.2747 155.935 26.968C155.53 27.6613 154.975 28.2 154.271 28.584C153.578 28.9573 152.799 29.144 151.935 29.144ZM151.935 27.192C152.341 27.192 152.719 27.096 153.071 26.904C153.434 26.7013 153.722 26.4027 153.935 26.008C154.149 25.6133 154.255 25.1333 154.255 24.568C154.255 23.7253 154.031 23.08 153.583 22.632C153.146 22.1733 152.607 21.944 151.967 21.944C151.327 21.944 150.789 22.1733 150.351 22.632C149.925 23.08 149.711 23.7253 149.711 24.568C149.711 25.4107 149.919 26.0613 150.335 26.52C150.762 26.968 151.295 27.192 151.935 27.192Z" fill="#570EFF"/>
</svg>
