<svg width="34" height="34" viewBox="0 0 34 34" fill="none" xmlns="http://www.w3.org/2000/svg">
<rect x="0.435547" y="0.615234" width="32.6348" height="32.6348" rx="16.3174" fill="#F1F7FF"/>
<path d="M10.0863 23.266H15.0863C15.0863 23.6859 15.2619 24.0886 15.5744 24.3855C15.887 24.6825 16.3109 24.8493 16.7529 24.8493C17.195 24.8493 17.6189 24.6825 17.9314 24.3855C18.244 24.0886 18.4196 23.6859 18.4196 23.266H23.4196C23.6406 23.266 23.8526 23.1825 24.0089 23.0341C24.1651 22.8856 24.2529 22.6842 24.2529 22.4743C24.2529 22.2643 24.1651 22.063 24.0089 21.9145C23.8526 21.766 23.6406 21.6826 23.4196 21.6826V16.141C23.4196 14.4612 22.7172 12.8503 21.467 11.6626C20.2167 10.4749 18.521 9.80762 16.7529 9.80762C14.9848 9.80762 13.2891 10.4749 12.0389 11.6626C10.7886 12.8503 10.0863 14.4612 10.0863 16.141V21.6826C9.86525 21.6826 9.65329 21.766 9.49701 21.9145C9.34073 22.063 9.25293 22.2643 9.25293 22.4743C9.25293 22.6842 9.34073 22.8856 9.49701 23.0341C9.65329 23.1825 9.86525 23.266 10.0863 23.266ZM11.7529 16.141C11.7529 14.8812 12.2797 13.673 13.2174 12.7822C14.1551 11.8914 15.4268 11.391 16.7529 11.391C18.079 11.391 19.3508 11.8914 20.2885 12.7822C21.2261 13.673 21.7529 14.8812 21.7529 16.141V21.6826H11.7529V16.141Z" fill="#570EFF"/>
</svg>
