<svg width="167" height="56" viewBox="0 0 167 56" fill="none" xmlns="http://www.w3.org/2000/svg">
<rect x="27.2002" y="35.2" width="112" height="20.8" rx="10.4" fill="#F1F7FF"/>
<path d="M6.7584 10.0288L8.832 23.5968L15.6672 10.0288H20.3264L10.7776 28H5.2992L2.0992 10.0288H6.7584ZM31.9096 17.1968L31.244 20.832H19.98L20.6456 17.1968H31.9096ZM49.678 15.8144C49.5073 16.8555 49.1063 17.8112 48.4748 18.6816C47.8433 19.5349 46.9815 20.2261 45.8892 20.7552C44.814 21.2843 43.5425 21.5488 42.0748 21.5488H39.3612L38.2092 28H33.8316L37.006 10.0288H44.0972C45.9745 10.0288 47.3911 10.4469 48.3468 11.2832C49.3025 12.1024 49.7804 13.2203 49.7804 14.6368C49.7804 15.0635 49.7463 15.456 49.678 15.8144ZM42.3308 18.1184C43.9692 18.1184 44.9335 17.3504 45.2236 15.8144C45.2577 15.5413 45.2748 15.3451 45.2748 15.2256C45.2748 14.6795 45.0956 14.2613 44.7372 13.9712C44.3959 13.664 43.8668 13.5104 43.15 13.5104H40.7692L39.9756 18.1184H42.3308ZM60.3282 10.0288C62.1885 10.0288 63.605 10.4555 64.5778 11.3088C65.5506 12.1451 66.037 13.2373 66.037 14.5856C66.037 14.9781 66.0029 15.3451 65.9346 15.6864C65.7298 16.8811 65.2093 17.9477 64.373 18.8864C63.5367 19.8251 62.4189 20.4907 61.0194 20.8832L63.9122 28H58.9714L56.437 21.216H55.3874L54.1842 28H49.8066L52.981 10.0288H60.3282ZM61.4546 15.8656C61.4887 15.5925 61.5058 15.4133 61.5058 15.328C61.5058 14.7819 61.3266 14.3637 60.9682 14.0736C60.6269 13.7664 60.1149 13.6128 59.4322 13.6128H56.7186L55.925 18.1184H58.6386C59.4407 18.1184 60.0722 17.9221 60.533 17.5296C61.0109 17.1371 61.3181 16.5824 61.4546 15.8656ZM75.057 28.1792C73.5381 28.1792 72.1983 27.8635 71.0378 27.232C69.8943 26.6005 69.0069 25.7131 68.3754 24.5696C67.7439 23.4261 67.4282 22.112 67.4282 20.6272C67.4282 18.528 67.8805 16.6592 68.785 15.0208C69.6895 13.3653 70.9439 12.0768 72.5482 11.1552C74.1695 10.2336 76.0042 9.7728 78.0522 9.7728C79.5882 9.7728 80.9365 10.0885 82.097 10.72C83.2575 11.3344 84.1535 12.2133 84.785 13.3568C85.4165 14.4832 85.7322 15.7803 85.7322 17.248C85.7322 19.3472 85.2799 21.2331 84.3754 22.9056C83.4709 24.5611 82.2079 25.8581 80.5866 26.7968C78.9653 27.7184 77.1221 28.1792 75.057 28.1792ZM75.7226 24.1344C76.849 24.1344 77.8389 23.8443 78.6922 23.264C79.5455 22.6837 80.2026 21.9072 80.6634 20.9344C81.1413 19.9445 81.3802 18.8779 81.3802 17.7344C81.3802 16.5056 81.0389 15.5413 80.3562 14.8416C79.6735 14.1419 78.7178 13.792 77.489 13.792C76.3626 13.792 75.3642 14.0821 74.4938 14.6624C73.6405 15.2427 72.9749 16.0192 72.497 16.992C72.0362 17.9477 71.8058 19.0059 71.8058 20.1664C71.8058 21.3952 72.1471 22.368 72.8298 23.0848C73.5125 23.7845 74.4767 24.1344 75.7226 24.1344ZM101.07 10.0288L98.9196 22.2656C98.5783 24.16 97.7847 25.6192 96.5388 26.6432C95.2929 27.6672 93.7655 28.1792 91.9564 28.1792C90.318 28.1792 89.0209 27.7696 88.0652 26.9504C87.1265 26.1312 86.6572 24.9536 86.6572 23.4176C86.6572 22.8885 86.6999 22.4107 86.7852 21.984H91.1372C91.086 22.2571 91.0604 22.5045 91.0604 22.7264C91.0604 23.2384 91.1884 23.6224 91.4444 23.8784C91.7004 24.1344 92.0588 24.2624 92.5196 24.2624C93.0487 24.2624 93.4839 24.1003 93.8252 23.776C94.1836 23.4347 94.4225 22.9312 94.542 22.2656L96.6924 10.0288H101.07ZM108.369 13.4848L107.729 17.2224H113.592L113.003 20.5248H107.14L106.424 24.544H113.054L112.44 28H101.432L104.606 10.0288H115.614L115 13.4848H108.369ZM116.152 18.9888C116.459 17.2139 117.116 15.6352 118.123 14.2528C119.147 12.8533 120.41 11.7696 121.912 11.0016C123.414 10.2165 125.035 9.824 126.776 9.824C128.909 9.824 130.633 10.3872 131.947 11.5136C133.278 12.64 134.029 14.176 134.2 16.1216H129.387C129.165 15.3877 128.756 14.8331 128.158 14.4576C127.578 14.0651 126.861 13.8688 126.008 13.8688C124.66 13.8688 123.491 14.3381 122.501 15.2768C121.511 16.1984 120.879 17.4357 120.606 18.9888C120.521 19.4667 120.478 19.8848 120.478 20.2432C120.478 21.4379 120.811 22.3851 121.477 23.0848C122.142 23.7845 123.055 24.1344 124.216 24.1344C125.052 24.1344 125.829 23.9381 126.546 23.5456C127.279 23.1531 127.894 22.5899 128.389 21.856H133.202C132.348 23.8016 131.06 25.3376 129.336 26.464C127.612 27.5733 125.684 28.128 123.55 28.128C122.014 28.128 120.675 27.8293 119.531 27.232C118.388 26.6347 117.509 25.7899 116.894 24.6976C116.28 23.6053 115.973 22.3339 115.973 20.8832C115.973 20.2347 116.033 19.6032 116.152 18.9888ZM150.884 10.0288L150.295 13.4848H145.508L142.948 28H138.57L141.13 13.4848H136.369L136.983 10.0288H150.884ZM157.049 28.1792C155.103 28.1792 153.516 27.7611 152.287 26.9248C151.076 26.0715 150.47 24.8683 150.47 23.3152C150.47 23.1616 150.487 22.9312 150.521 22.624H155.078C155.027 23.2725 155.18 23.7845 155.539 24.16C155.897 24.5355 156.443 24.7232 157.177 24.7232C157.843 24.7232 158.363 24.5781 158.739 24.288C159.131 23.9979 159.327 23.5883 159.327 23.0592C159.327 22.5131 159.08 22.0693 158.585 21.728C158.107 21.3867 157.356 21.0027 156.332 20.576C155.342 20.1664 154.532 19.7824 153.9 19.424C153.286 19.0485 152.748 18.5451 152.287 17.9136C151.827 17.2821 151.596 16.4885 151.596 15.5328C151.579 14.3552 151.869 13.3312 152.467 12.4608C153.064 11.5904 153.892 10.9248 154.95 10.464C156.008 10.0032 157.22 9.7728 158.585 9.7728C159.814 9.7728 160.906 9.96907 161.862 10.3616C162.818 10.7371 163.56 11.2917 164.089 12.0256C164.618 12.7424 164.883 13.5957 164.883 14.5856C164.883 14.8416 164.874 15.0293 164.857 15.1488H160.198C160.215 15.0805 160.223 14.9781 160.223 14.8416C160.223 14.3637 160.053 13.9797 159.711 13.6896C159.387 13.3824 158.935 13.2288 158.355 13.2288C157.74 13.2288 157.237 13.3824 156.844 13.6896C156.469 13.9797 156.281 14.3808 156.281 14.8928C156.281 15.4048 156.52 15.84 156.998 16.1984C157.476 16.5397 158.218 16.9408 159.225 17.4016C160.232 17.8624 161.051 18.2891 161.683 18.6816C162.331 19.0741 162.886 19.6032 163.347 20.2688C163.807 20.9173 164.038 21.7195 164.038 22.6752C164.038 23.7333 163.756 24.6805 163.193 25.5168C162.63 26.3531 161.819 27.0101 160.761 27.488C159.703 27.9488 158.466 28.1792 157.049 28.1792Z" fill="#570EFF"/>
<path d="M43.7476 49.3024C42.9711 49.3024 42.3354 49.1317 41.8404 48.7904C41.354 48.449 41.081 47.9626 41.0212 47.3312H41.61C41.6527 47.7834 41.8575 48.1418 42.2244 48.4064C42.5999 48.6709 43.1076 48.8032 43.7476 48.8032C44.2767 48.8032 44.6948 48.6709 45.002 48.4064C45.3178 48.1333 45.4756 47.8005 45.4756 47.408C45.4756 47.1349 45.3903 46.913 45.2196 46.7424C45.0575 46.5632 44.8527 46.4266 44.6052 46.3328C44.3578 46.2389 44.0207 46.1365 43.594 46.0256C43.082 45.889 42.6682 45.7568 42.3524 45.6288C42.0367 45.4922 41.7679 45.2917 41.546 45.0272C41.3242 44.7626 41.2132 44.4085 41.2132 43.9648C41.2132 43.6405 41.3114 43.3418 41.5076 43.0688C41.7039 42.7872 41.977 42.5653 42.3268 42.4032C42.6767 42.241 43.0735 42.16 43.5172 42.16C44.2426 42.16 44.8271 42.3434 45.2708 42.7104C45.7231 43.0688 45.9663 43.568 46.0004 44.208H45.4244C45.3988 43.7472 45.2196 43.3717 44.8868 43.0816C44.554 42.7914 44.0932 42.6464 43.5044 42.6464C43.0095 42.6464 42.5999 42.7744 42.2756 43.0304C41.9514 43.2864 41.7892 43.5978 41.7892 43.9648C41.7892 44.289 41.8788 44.5536 42.058 44.7584C42.2458 44.9546 42.4719 45.1082 42.7364 45.2192C43.0095 45.3216 43.3679 45.4325 43.8116 45.552C44.298 45.68 44.6863 45.808 44.9764 45.936C45.2751 46.0554 45.5268 46.2346 45.7316 46.4736C45.9364 46.704 46.0388 47.0154 46.0388 47.408C46.0388 47.7664 45.9407 48.0906 45.7444 48.3808C45.5482 48.6709 45.2751 48.897 44.9252 49.0592C44.5754 49.2213 44.1828 49.3024 43.7476 49.3024ZM60.9005 42.2496L56.8557 52.464H56.2669L57.5597 49.2L54.6413 42.2496H55.2685L57.8797 48.56L60.3117 42.2496H60.9005ZM72.1827 49.3024C71.4061 49.3024 70.7704 49.1317 70.2754 48.7904C69.789 48.449 69.516 47.9626 69.4562 47.3312H70.045C70.0877 47.7834 70.2925 48.1418 70.6594 48.4064C71.0349 48.6709 71.5427 48.8032 72.1827 48.8032C72.7117 48.8032 73.1299 48.6709 73.4371 48.4064C73.7528 48.1333 73.9107 47.8005 73.9107 47.408C73.9107 47.1349 73.8253 46.913 73.6547 46.7424C73.4925 46.5632 73.2877 46.4266 73.0403 46.3328C72.7928 46.2389 72.4557 46.1365 72.0291 46.0256C71.5171 45.889 71.1032 45.7568 70.7875 45.6288C70.4717 45.4922 70.2029 45.2917 69.981 45.0272C69.7592 44.7626 69.6482 44.4085 69.6482 43.9648C69.6482 43.6405 69.7464 43.3418 69.9426 43.0688C70.1389 42.7872 70.412 42.5653 70.7619 42.4032C71.1117 42.241 71.5085 42.16 71.9522 42.16C72.6776 42.16 73.2621 42.3434 73.7059 42.7104C74.1581 43.0688 74.4013 43.568 74.4355 44.208H73.8595C73.8339 43.7472 73.6547 43.3717 73.3219 43.0816C72.9891 42.7914 72.5283 42.6464 71.9395 42.6464C71.4445 42.6464 71.0349 42.7744 70.7106 43.0304C70.3864 43.2864 70.2242 43.5978 70.2242 43.9648C70.2242 44.289 70.3138 44.5536 70.4931 44.7584C70.6808 44.9546 70.9069 45.1082 71.1715 45.2192C71.4445 45.3216 71.8029 45.4325 72.2466 45.552C72.7331 45.68 73.1213 45.808 73.4115 45.936C73.7101 46.0554 73.9619 46.2346 74.1667 46.4736C74.3715 46.704 74.4739 47.0154 74.4739 47.408C74.4739 47.7664 74.3757 48.0906 74.1795 48.3808C73.9832 48.6709 73.7101 48.897 73.3603 49.0592C73.0104 49.2213 72.6179 49.3024 72.1827 49.3024ZM84.7659 42.7488V47.344C84.7659 47.856 84.8598 48.2101 85.0475 48.4064C85.2353 48.5941 85.5681 48.688 86.0459 48.688H86.8267V49.2H85.9563C85.3505 49.2 84.9025 49.0592 84.6123 48.7776C84.3307 48.4874 84.1899 48.0096 84.1899 47.344V42.7488H83.1403V42.2496H84.1899V40.4832H84.7659V42.2496H86.8267V42.7488H84.7659ZM102.285 45.2576C102.285 45.5648 102.277 45.7952 102.259 45.9488H96.2562C96.2733 46.5717 96.4098 47.0965 96.6658 47.5232C96.9218 47.9498 97.2589 48.2698 97.677 48.4832C98.0952 48.6965 98.5517 48.8032 99.0466 48.8032C99.7293 48.8032 100.301 48.6368 100.762 48.304C101.223 47.9626 101.513 47.5018 101.632 46.9216H102.234C102.097 47.6298 101.747 48.2058 101.184 48.6496C100.621 49.0848 99.9085 49.3024 99.0466 49.3024C98.3981 49.3024 97.8178 49.1573 97.3058 48.8672C96.7938 48.577 96.3928 48.1632 96.1026 47.6256C95.8125 47.0794 95.6674 46.4437 95.6674 45.7184C95.6674 44.993 95.8082 44.3616 96.0898 43.824C96.38 43.2864 96.781 42.8768 97.293 42.5952C97.805 42.305 98.3896 42.16 99.0466 42.16C99.7123 42.16 100.288 42.305 100.775 42.5952C101.27 42.8768 101.645 43.2565 101.901 43.7344C102.157 44.2037 102.285 44.7114 102.285 45.2576ZM101.709 45.4752C101.735 44.8608 101.624 44.3402 101.376 43.9136C101.137 43.4869 100.809 43.1712 100.391 42.9664C99.9725 42.753 99.5202 42.6464 99.0338 42.6464C98.5474 42.6464 98.0952 42.753 97.677 42.9664C97.2674 43.1712 96.9304 43.4869 96.6658 43.9136C96.4098 44.3402 96.2733 44.8608 96.2562 45.4752H101.709ZM119.923 42.1088C120.717 42.1088 121.366 42.3648 121.869 42.8768C122.373 43.3802 122.624 44.1312 122.624 45.1296V49.2H122.061V45.168C122.061 44.3402 121.861 43.7088 121.459 43.2736C121.067 42.8298 120.525 42.608 119.834 42.608C119.117 42.608 118.541 42.8554 118.106 43.3504C117.671 43.8453 117.453 44.5621 117.453 45.5008V49.2H116.89V45.168C116.89 44.3402 116.689 43.7088 116.288 43.2736C115.896 42.8298 115.354 42.608 114.663 42.608C113.946 42.608 113.37 42.8554 112.935 43.3504C112.499 43.8453 112.282 44.5621 112.282 45.5008V49.2H111.706V42.2496H112.282V43.76C112.478 43.2138 112.794 42.8042 113.229 42.5312C113.673 42.2496 114.181 42.1088 114.752 42.1088C115.384 42.1088 115.926 42.2752 116.378 42.608C116.839 42.9322 117.154 43.4144 117.325 44.0544C117.487 43.4144 117.803 42.9322 118.272 42.608C118.742 42.2752 119.292 42.1088 119.923 42.1088Z" fill="#5A4ED7"/>
</svg>
